<?xml version="1.0" encoding="iso-8859-1"?>
<!-- Generator: Adobe Illustrator 19.0.0, SVG Export Plug-In . SVG Version: 6.00 Build 0)  -->
<svg version="1.1" id="Capa_1" xmlns="http://www.w3.org/2000/svg" xmlns:xlink="http://www.w3.org/1999/xlink" x="0px" y="0px"
	 viewBox="0 0 480 480" style="enable-background:new 0 0 480 480;" xml:space="preserve">
<path style="fill:#CD8E5E;" d="M8,72v136h464V72H8z M296,160H184c-13.255,0-24-10.745-24-24s10.745-24,24-24h112
	c13.255,0,24,10.745,24,24S309.255,160,296,160z"/>
<path style="fill:#77BD63;" d="M64,8h32c8.837,0,16,7.163,16,16v24H48V24C48,15.163,55.163,8,64,8z"/>
<path style="fill:#5E9F51;" d="M120,168l16,48H24l16-48l8-128h64L120,168z"/>
<path style="fill:#77BD63;" d="M224,8h32c8.837,0,16,7.163,16,16v24h-64V24C208,15.163,215.163,8,224,8z"/>
<path style="fill:#5E9F51;" d="M280,168l16,48H184l16-48l8-128h64L280,168z"/>
<path style="fill:#77BD63;" d="M384,8h32c8.837,0,16,7.163,16,16v24h-64V24C368,15.163,375.163,8,384,8z"/>
<path style="fill:#5E9F51;" d="M440,168l16,48H344l16-48l8-128h64L440,168z"/>
<path style="fill:#FFC261;" d="M8,200h464v272H8V200z"/>
<ellipse style="fill:#FFDB8B;" cx="240" cy="296" rx="160" ry="48"/>
<path d="M472,64h-30.488L440,39.752V24c0-13.255-10.745-24-24-24h-32c-13.255,0-24,10.745-24,24v15.752L358.488,64h-76.976
	L280,39.752V24c0-13.255-10.745-24-24-24h-32c-13.255,0-24,10.745-24,24v15.752L198.488,64h-76.976L120,39.752V24
	c0-13.255-10.745-24-24-24H64C50.745,0,40,10.745,40,24v15.752L38.488,64H8c-4.418,0-8,3.582-8,8v400c0,4.418,3.582,8,8,8h464
	c4.418,0,8-3.582,8-8V72C480,67.582,476.418,64,472,64L472,64z M464,80v112h-7.568l-8.512-25.536L442.512,80L464,80z M368,168.504
	L375.512,48h48.976L432,168.504c0.043,0.689,0.175,1.369,0.392,2.024L439.568,192h-79.136l7.16-21.472
	C367.815,169.874,367.952,169.193,368,168.504z M376,24c0-4.418,3.582-8,8-8h32c4.418,0,8,3.582,8,8v8h-48V24z M357.488,80
	l-5.408,86.464L343.568,192h-47.136l-8-24H296c17.673,0,32-14.327,32-32s-14.327-32-32-32h-12l-1.504-24L357.488,80z M192.984,152
	H184c-8.837,0-16-7.163-16-16s7.163-16,16-16h10.984L192.984,152z M207.592,170.528c0.223-0.654,0.36-1.335,0.408-2.024L215.512,48
	h48.976L272,168.504c0.043,0.689,0.175,1.369,0.392,2.024L279.568,192h-79.136L207.592,170.528z M287.016,152l-2-32H296
	c8.837,0,16,7.163,16,16s-7.163,16-16,16H287.016z M216,24c0-4.418,3.582-8,8-8h32c4.418,0,8,3.582,8,8v8h-48V24z M197.488,80
	L196,104h-12c-17.673,0-32,14.327-32,32s14.327,32,32,32h7.568l-8,24h-47.136l-8.512-25.536L122.512,80L197.488,80z M48,168.504
	L55.512,48h48.976L112,168.504c0.043,0.689,0.175,1.369,0.392,2.024l7.2,21.472h-79.16l7.16-21.472
	C47.815,169.874,47.952,169.193,48,168.504z M56,24c0-4.418,3.582-8,8-8h32c4.418,0,8,3.582,8,8v8H56V24z M16,80h21.488
	l-5.408,86.464L23.568,192H16L16,80z M464,464H16V208h448V464z"/>
<path d="M240,352c83.488,0,168-19.2,168-56s-84.512-56-168-56S72,259.2,72,296S156.512,352,240,352z M240,256
	c94.176,0,152,23.296,152,40s-57.824,40-152,40S88,312.704,88,296S145.824,256,240,256z"/>
<g>
</g>
<g>
</g>
<g>
</g>
<g>
</g>
<g>
</g>
<g>
</g>
<g>
</g>
<g>
</g>
<g>
</g>
<g>
</g>
<g>
</g>
<g>
</g>
<g>
</g>
<g>
</g>
<g>
</g>
</svg>
